<?xml version="1.0" encoding="utf-8"?>
<!-- Generator: Adobe Illustrator 22.0.1, SVG Export Plug-In . SVG Version: 6.00 Build 0)  -->
<svg version="1.1" id="Calque_1" xmlns="http://www.w3.org/2000/svg" xmlns:xlink="http://www.w3.org/1999/xlink" x="0px" y="0px"
	 viewBox="0 0 153.5 94.7" style="enable-background:new 0 0 153.5 94.7;" xml:space="preserve">
<style type="text/css">
	.st0{fill:#EAA4AE;}
	.st1{fill:#A8D7D0;}
</style>
<g>
	<g>
		<path class="st0" d="M68.6,25.6h-6.2c-0.2,0-0.4-0.2-0.4-0.4V10.8c0-0.2-0.2-0.4-0.4-0.4H58c-0.2,0-0.4,0.2-0.4,0.4v18.7
			c0,0.2,0.2,0.4,0.4,0.4h10.6c0.2,0,0.4-0.2,0.4-0.4V26C69,25.8,68.8,25.6,68.6,25.6z"/>
		<path class="st0" d="M87.5,16h-3.4c-0.2,0-0.4,0.2-0.4,0.4c0,0.3-0.4,0.5-0.6,0.3c-0.9-0.7-2-1.1-3.5-1.1c-3.6,0-6.6,3.2-6.6,7.3
			c0,4.1,3,7.3,6.6,7.3c1.5,0,2.6-0.4,3.5-1.1c0.3-0.2,0.6,0,0.6,0.3c0,0.2,0.2,0.4,0.4,0.4h3.4c0.2,0,0.4-0.2,0.4-0.4V16.4
			C87.9,16.2,87.7,16,87.5,16z M80.4,26.3c-1.9,0-3.3-1.3-3.3-3.4c0-2.1,1.4-3.4,3.3-3.4c1.9,0,3.3,1.3,3.3,3.4
			C83.7,25,82.4,26.3,80.4,26.3z"/>
		<path class="st0" d="M6.5,58.8c0,8.5,6.9,15.3,15.3,15.3v-4c-6.2,0-11.3-5.1-11.3-11.3s5.1-11.3,11.3-11.3v-4
			C13.4,43.5,6.5,50.4,6.5,58.8z"/>
		<path class="st0" d="M114.7,20.5v4c6.1,0.2,11,5.2,11,11.3c0,6.1-4.9,11.1-11,11.3v4c8.3-0.2,15-7,15-15.3
			C129.7,27.5,123,20.7,114.7,20.5z"/>
	</g>
	<g>
		<rect x="92.1" y="20.5" class="st1" width="22.6" height="4"/>
		<path class="st1" d="M39.9,24.5L39.9,24.5L39.9,24.5C39.9,24.5,39.9,24.5,39.9,24.5C39.9,24.5,39.9,24.5,39.9,24.5l13.5,0v-4H39.9
			c-6.2,0-11.3-5.1-11.3-11.3c0-1.1-0.9-2-2-2c-1.1,0-2,0.9-2,2C24.6,17.6,31.5,24.5,39.9,24.5z"/>
		<path class="st1" d="M65.4,64.7c-1.4,0-2.6,0.4-3.4,1c-0.2,0.2-0.6,0-0.6-0.3c0-0.2-0.2-0.4-0.4-0.4h-3.4c-0.2,0-0.4,0.2-0.4,0.4
			v13.1c0,0.2,0.2,0.4,0.4,0.4h3.4c0.2,0,0.4-0.2,0.4-0.4v-7.2c0-2,1.1-2.9,2.6-2.9c1.3,0,2.4,0.8,2.4,2.5v7.5
			c0,0.2,0.2,0.4,0.4,0.4h3.4c0.2,0,0.4-0.2,0.4-0.4v-8.2C70.6,66.7,68.2,64.7,65.4,64.7z"/>
		<path class="st1" d="M46.8,34.2c-1.4,0-2.5,1.1-2.5,2.5c0,1.4,1.1,2.5,2.5,2.5c1.4,0,2.5-1.1,2.5-2.5
			C49.3,35.4,48.2,34.2,46.8,34.2z"/>
		<path class="st1" d="M61.7,54.4c0.2,0,0.4-0.2,0.4-0.4v-3c0-0.2-0.2-0.4-0.4-0.4c-1.6,0.1-2.5-0.1-2.5-1.2v-4.5
			c0-0.2,0.2-0.4,0.4-0.4h2.1c0.2,0,0.4-0.2,0.4-0.4v-3.2c0-0.2-0.2-0.4-0.4-0.4h-2.1c-0.2,0-0.4-0.2-0.4-0.4v-3
			c0-0.3-0.3-0.5-0.5-0.4l-3.4,1c-0.2,0-0.3,0.2-0.3,0.4v2c0,0.2-0.2,0.4-0.4,0.4h-1.4c-0.2,0-0.4,0.2-0.4,0.4v3.2
			c0,0.2,0.2,0.4,0.4,0.4h1.4c0.2,0,0.4,0.2,0.4,0.4v4.5C55.1,53.2,56.6,54.9,61.7,54.4z"/>
		<path class="st1" d="M45.1,40.5c-0.2,0-0.4,0.2-0.4,0.4V54c0,0.2,0.2,0.4,0.4,0.4h3.4c0.2,0,0.4-0.2,0.4-0.4V40.9
			c0-0.2-0.2-0.4-0.4-0.4H45.1z"/>
		<path class="st1" d="M37.2,47c1.9-1.1,3.2-3.2,3.2-5.4c0-3.7-3-6.7-6.7-6.7h-7.4c-0.2,0-0.4,0.2-0.4,0.4V54c0,0.2,0.2,0.4,0.4,0.4
			H30c0.2,0,0.4-0.2,0.4-0.4v-5.6c0-0.2,0.2-0.4,0.4-0.4h1.5c0.1,0,0.3,0.1,0.3,0.2l3.4,6c0.1,0.1,0.2,0.2,0.3,0.2h3.9
			c0.3,0,0.5-0.3,0.3-0.6L37,47.6C36.9,47.4,37,47.1,37.2,47z M33.7,44.1h-2.9c-0.2,0-0.4-0.2-0.4-0.4v-4.2c0-0.2,0.2-0.4,0.4-0.4
			h2.9c1.2,0,2.2,1.1,2.2,2.5C36,43,35,44.1,33.7,44.1z"/>
		<path class="st1" d="M93.5,54.4h3.4c0.2,0,0.4-0.2,0.4-0.4V40.9c0-0.2-0.2-0.4-0.4-0.4h-3.4c-0.2,0-0.4,0.2-0.4,0.4v7.2
			c0,2-1.1,2.9-2.6,2.9c-1.3,0-2.4-0.8-2.4-2.5v-7.5c0-0.2-0.2-0.4-0.4-0.4h-3.4c-0.2,0-0.4,0.2-0.4,0.4V49c0,3.7,2.4,5.7,5.2,5.7
			c1.4,0,2.6-0.4,3.4-1c0.2-0.2,0.6,0,0.6,0.3C93.1,54.2,93.3,54.4,93.5,54.4z"/>
		<path class="st1" d="M80,47.4c0-4.1-3.3-7.3-7.4-7.3c-4.1,0-7.4,3.2-7.4,7.3c0,4.1,3.3,7.3,7.4,7.3C76.7,54.8,80,51.6,80,47.4z
			 M72.7,50.7c-1.8,0-3.2-1.3-3.2-3.3c0-2,1.4-3.3,3.2-3.3c1.8,0,3.2,1.3,3.2,3.3C75.9,49.4,74.5,50.7,72.7,50.7z"/>
		<path class="st1" d="M105.9,58.7h-3.4c-0.2,0-0.4,0.2-0.4,0.4v19.5c0,0.2,0.2,0.4,0.4,0.4h3.4c0.2,0,0.4-0.2,0.4-0.4V59.1
			C106.3,58.9,106.2,58.7,105.9,58.7z"/>
		<path class="st1" d="M118,64.7c-4.4,0-7.4,3.2-7.4,7.3c0,4.1,2.9,7.3,7.7,7.3c2.5,0,4.4-0.8,5.8-2.5c0.2-0.2,0.1-0.5-0.1-0.6
			l-2.7-1.5c-0.1-0.1-0.3-0.1-0.4,0c-0.6,0.5-1.5,0.9-2.5,0.9c-1.3,0-2.4-0.4-3-1.3c-0.2-0.3,0-0.6,0.3-0.6h8.9
			c0.2,0,0.4-0.1,0.4-0.3c0.1-0.4,0.1-0.9,0.1-1.3C125.1,67.8,122.1,64.7,118,64.7z M120.4,70.6h-4.8c-0.3,0-0.5-0.3-0.4-0.5
			c0.5-1.1,1.5-1.6,2.8-1.6c1.1,0,2.2,0.4,2.7,1.6C120.9,70.3,120.7,70.6,120.4,70.6z"/>
		<path class="st1" d="M110.1,40.2c-1.1,0.1-2.3,0.6-3,1.5c-0.2,0.3-0.7,0.1-0.7-0.3v-0.5c0-0.2-0.2-0.4-0.4-0.4h-3.4
			c-0.2,0-0.4,0.2-0.4,0.4V54c0,0.2,0.2,0.4,0.4,0.4h3.4c0.2,0,0.4-0.2,0.4-0.4v-5.9c0-2.5,2.1-3.3,3.8-3.2c0.2,0,0.4-0.2,0.4-0.4
			v-3.9C110.5,40.4,110.3,40.2,110.1,40.2z"/>
		<path class="st1" d="M82,64.7c-4.4,0-7.4,3.2-7.4,7.3c0,4.1,2.9,7.3,7.7,7.3c2.5,0,4.4-0.8,5.8-2.5c0.2-0.2,0.1-0.5-0.1-0.6
			l-2.7-1.5c-0.1-0.1-0.3-0.1-0.4,0c-0.6,0.5-1.5,0.9-2.5,0.9c-1.3,0-2.4-0.4-3-1.3c-0.2-0.3,0-0.6,0.3-0.6h8.9
			c0.2,0,0.4-0.1,0.4-0.3c0.1-0.4,0.1-0.9,0.1-1.3C89.1,67.8,86.1,64.7,82,64.7z M84.4,70.6h-4.8c-0.3,0-0.5-0.3-0.4-0.5
			c0.5-1.1,1.5-1.6,2.8-1.6c1.1,0,2.2,0.4,2.7,1.6C84.8,70.3,84.6,70.6,84.4,70.6z"/>
		<path class="st1" d="M96.9,58.7h-3.4c-0.2,0-0.4,0.2-0.4,0.4v19.5c0,0.2,0.2,0.4,0.4,0.4h3.4c0.2,0,0.4-0.2,0.4-0.4V59.1
			C97.3,58.9,97.1,58.7,96.9,58.7z"/>
		<rect x="21.8" y="70.2" class="st1" width="31.3" height="4"/>
		<path class="st1" d="M132,70.2L132,70.2l-2.8,0v4h2.8c6.2,0,11.3,5.1,11.3,11.3c0,1.1,0.9,2,2,2c1.1,0,2-0.9,2-2
			C147.3,77.1,140.5,70.2,132,70.2z"/>
	</g>
</g>
</svg>
